<svg xmlns="http://www.w3.org/2000/svg" width="30.74" height="30.74" viewBox="0 0 30.74 30.74">
  <defs>
    <style>
      .cls-1 {
        fill: none;
        stroke: #e5e3de;
        stroke-miterlimit: 10;
        stroke-width: 1.5px;
      }
    </style>
  </defs>
  <g id="facebook">
    <g>
      <path class="cls-1" d="M30,15.37a14.62,14.62,0,1,0-16.9,14.45V19.6H9.37V15.37h3.72V12.15c0-3.66,2.18-5.69,5.52-5.69a22.08,22.08,0,0,1,3.27.29v3.6H20a2.11,2.11,0,0,0-2.38,2.28v2.74h4.05l-.65,4.23h-3.4V29.82A14.63,14.63,0,0,0,30,15.37Z"/>
      <path class="cls-1" d="M21.06,19.6l.65-4.23H17.66V12.63A2.11,2.11,0,0,1,20,10.35h1.84V6.75a22.08,22.08,0,0,0-3.27-.29c-3.34,0-5.52,2-5.52,5.69v3.22H9.37V19.6h3.72V29.82a15.48,15.48,0,0,0,2.28.17,15.72,15.72,0,0,0,2.29-.17V19.6Z"/>
    </g>
  </g>
</svg>
