<svg id="instagram" xmlns="http://www.w3.org/2000/svg" width="30.74" height="30.74" viewBox="0 0 30.74 30.74">
  <defs>
    <style>
      .cls-1 {
        fill: none;
        stroke: #e5e3de;
        stroke-miterlimit: 10;
        stroke-width: 1.5px;
      }
    </style>
  </defs>
  <g id="Layer_4" data-name="Layer 4">
    <g>
      <circle class="cls-1" cx="15.37" cy="15.37" r="14.62"/>
      <path class="cls-1" d="M18.5,7.45H12.22a4.92,4.92,0,0,0-4.9,4.93v6.3a4.91,4.91,0,0,0,4.9,4.92H18.5a4.91,4.91,0,0,0,4.91-4.92v-6.3A4.92,4.92,0,0,0,18.5,7.45ZM15.37,19a3.44,3.44,0,1,1,3.44-3.44A3.44,3.44,0,0,1,15.37,19Zm4.44-7.19a.62.62,0,1,1,.61-.62A.62.62,0,0,1,19.81,11.78Z"/>
    </g>
  </g>
</svg>
