<svg xmlns="http://www.w3.org/2000/svg" width="31.24" height="31.24" viewBox="0 0 31.24 31.24">
  <defs>
    <style>
      .cls-1 {
        fill: none;
        stroke: #e5e3de;
        stroke-miterlimit: 10;
        stroke-width: 1.5px;
      }
    </style>
  </defs>
  <g id="Mail">
    <g>
      <path class="cls-1" d="M30.11,13.62A14.65,14.65,0,0,1,11.78,29.75,14.34,14.34,0,0,1,1.49,19.47a14.64,14.64,0,1,1,28.62-5.85Z"/>
      <path class="cls-1" d="M24.89,11.06a1.3,1.3,0,0,0-1.38-1.21H7.68A1.3,1.3,0,0,0,6.3,11.06v9a1.31,1.31,0,0,0,1.38,1.22H23.51a1.31,1.31,0,0,0,1.38-1.22Zm-.12-.49S16.12,18,15.86,18.15a.67.67,0,0,1-.41.17.7.7,0,0,1-.44-.17L6.35,10.74"/>
    </g>
  </g>
</svg>
